<?xml version="1.0" encoding="UTF-8"?>
<svg id="Layer_4" data-name="Layer 4" xmlns="http://www.w3.org/2000/svg" viewBox="0 0 1920 1080">
  <defs>
    <style>
      .cls-1 {
        fill: none;
      }
    </style>
  </defs>
  <path class="cls-1" d="M894.29,535c-3.01-2.63-7.3-3.94-12.87-3.94h-26.2v29.67h26.43c11.44,0,17.16-4.79,17.16-14.37,0-4.94-1.51-8.73-4.52-11.36Z"/>
  <path class="cls-1" d="M1361.99,473.33h-15.76v83.92h15.76c13.29,0,23.72-3.63,31.3-10.9,7.57-7.26,11.36-17.54,11.36-30.83s-3.79-23.84-11.36-31.18c-7.57-7.34-18.01-11.01-31.3-11.01Z"/>
  <path class="cls-1" d="M1191.6,473.33h-15.76v83.92h15.76c13.29,0,23.72-3.63,31.3-10.9,7.57-7.26,11.36-17.54,11.36-30.83s-3.79-23.84-11.36-31.18c-7.57-7.34-18.01-11.01-31.3-11.01Z"/>
  <path class="cls-1" d="M895.33,484.69c0-9.74-5.72-14.6-17.15-14.6h-22.95v28.75h22.95c11.44,0,17.15-4.71,17.15-14.14Z"/>
  <path class="cls-1" d="M1615,406H310c-5.52,0-10,4.48-10,10v202c0,5.52,4.48,10,10,10h1305c5.52,0,10-4.48,10-10v-202c0-5.52-4.48-10-10-10ZM437.02,585.53c-9.58,7.88-23.03,11.82-40.34,11.82h-80.91v-163.44h78.36c16.69,0,29.79,3.71,39.29,11.13,9.5,7.42,14.26,17.85,14.26,31.3,0,9.58-2.51,17.58-7.53,23.99-5.02,6.42-11.71,10.78-20.05,13.1,9.58,2.17,17.19,6.92,22.83,14.26,5.64,7.34,8.46,15.73,8.46,25.15,0,13.91-4.79,24.81-14.37,32.69ZM516.76,597.36h-45.44v-163.44h45.44v163.44ZM665.83,470.08h-43.58v127.27h-45.44v-127.27h-43.12v-36.16h132.14v36.16ZM787.3,470.32h-59.12v26.66h52.16v34.54h-52.16v29.44h59.12v36.4h-104.55v-163.44h104.55v36.4ZM931.03,585.53c-9.58,7.88-23.03,11.82-40.34,11.82h-80.91v-163.44h78.36c16.69,0,29.79,3.71,39.29,11.13,9.5,7.42,14.26,17.85,14.26,31.3,0,9.58-2.51,17.58-7.53,23.99-5.02,6.42-11.71,10.78-20.05,13.1,9.58,2.17,17.19,6.92,22.83,14.26,5.64,7.34,8.46,15.73,8.46,25.15,0,13.91-4.79,24.81-14.37,32.69ZM1105.36,528.74c0,14.99-3.17,27.78-9.51,38.37-6.34,10.59-14.95,18.55-25.85,23.88-10.9,5.33-22.99,8-36.28,8s-25.15-2.67-35.59-8c-10.43-5.33-18.63-13.25-24.57-23.76-5.95-10.51-8.93-23.33-8.93-38.48v-94.82h45.21v94.82c0,8.81,2.05,15.61,6.14,20.4,4.09,4.79,10.32,7.19,18.66,7.19s14.64-2.43,18.89-7.3c4.25-4.87,6.38-11.63,6.38-20.28v-94.82h45.44v94.82ZM1269.84,557.71c-7.04,12.37-17,22.06-29.91,29.09-12.91,7.03-27.86,10.55-44.86,10.55h-64.68v-163.44h64.68c17.16,0,32.18,3.44,45.09,10.32,12.9,6.88,22.83,16.5,29.79,28.86,6.96,12.37,10.43,26.51,10.43,42.42s-3.52,29.83-10.55,42.19ZM1440.23,557.71c-7.04,12.37-17,22.06-29.91,29.09-12.91,7.03-27.86,10.55-44.86,10.55h-64.68v-163.44h64.68c17.16,0,32.18,3.44,45.09,10.32,12.9,6.88,22.83,16.5,29.79,28.86,6.95,12.37,10.43,26.51,10.43,42.42s-3.52,29.83-10.55,42.19ZM1562.28,545.43v51.93h-45.67v-51.93l-57.49-111.51h51.93l28.75,63.06,28.75-63.06h51.23l-57.49,111.51Z"/>
  <path class="cls-1" d="M400.27,535c-3.01-2.63-7.3-3.94-12.87-3.94h-26.2v29.67h26.43c11.44,0,17.15-4.79,17.15-14.37,0-4.94-1.51-8.73-4.52-11.36Z"/>
  <path class="cls-1" d="M401.32,484.69c0-9.74-5.72-14.6-17.16-14.6h-22.95v28.75h22.95c11.44,0,17.16-4.71,17.16-14.14Z"/>
</svg>